# xmcd
#
# Track frame offsets: 
#        150
#        20565
#        37831
#        47920
#        80739
#        94059
#        110323
#        126602
#        158602
#        177664
#
# Disc length: 2813 seconds
#
# Revision: 4
# Processed by: cddbd v1.5.2PL0 Copyright (c) Steve Scherf et al.
# Submitted via: ExactAudioCopy v0.95b4
#
DISCID=810afb0a
DTITLE=Snowy White And The White Flames - Restless
DYEAR=2002
DGENRE=Blues
TTITLE0=Blues Is The Road
TTITLE1=The Time Has Come
TTITLE2=Restless
TTITLE3=Restless Too
TTITLE4=You Can't Break My Heart
TTITLE5=It's Your Life
TTITLE6=Softly
TTITLE7=Soldier Of Fortune
TTITLE8=New Day ...Maybe
TTITLE9=Too Far Away
EXTD=
EXTT0=
EXTT1=
EXTT2=
EXTT3=
EXTT4=
EXTT5=
EXTT6=
EXTT7=
EXTT8=
EXTT9=
PLAYORDER=
